<svg width="1600" height="900" viewBox="0 0 1600 900" fill="none" xmlns="http://www.w3.org/2000/svg">
  <defs>
    <linearGradient id="bg" x1="120" y1="60" x2="1480" y2="840" gradientUnits="userSpaceOnUse">
      <stop stop-color="#0F1724"/>
      <stop offset="1" stop-color="#1A2740"/>
    </linearGradient>
    <radialGradient id="haloA" cx="0" cy="0" r="1" gradientUnits="userSpaceOnUse" gradientTransform="translate(280 240) rotate(38) scale(420 300)">
      <stop stop-color="#FFB347" stop-opacity="0.32"/>
      <stop offset="1" stop-color="#FFB347" stop-opacity="0"/>
    </radialGradient>
    <radialGradient id="haloB" cx="0" cy="0" r="1" gradientUnits="userSpaceOnUse" gradientTransform="translate(1320 650) rotate(-24) scale(500 340)">
      <stop stop-color="#7DD3FC" stop-opacity="0.22"/>
      <stop offset="1" stop-color="#7DD3FC" stop-opacity="0"/>
    </radialGradient>
  </defs>

  <rect width="1600" height="900" rx="46" fill="url(#bg)"/>
  <rect width="1600" height="900" rx="46" fill="url(#haloA)"/>
  <rect width="1600" height="900" rx="46" fill="url(#haloB)"/>

  <g>
    <rect x="560" y="120" width="480" height="660" rx="42" fill="rgba(255,255,255,0.08)"/>
    <rect x="560" y="120" width="480" height="660" rx="42" stroke="rgba(255,255,255,0.18)" stroke-width="2"/>
    <rect x="610" y="160" width="380" height="52" rx="14" fill="rgba(255,255,255,0.06)"/>
    <rect x="640" y="178" width="120" height="16" rx="8" fill="rgba(255,255,255,0.35)"/>

    <rect x="610" y="240" width="380" height="200" rx="24" fill="rgba(255,179,71,0.16)" stroke="rgba(255,201,120,0.42)"/>
    <rect x="650" y="280" width="220" height="18" rx="9" fill="rgba(255,235,200,0.88)"/>
    <rect x="650" y="315" width="180" height="14" rx="7" fill="rgba(255,235,200,0.55)"/>
    <rect x="650" y="345" width="200" height="14" rx="7" fill="rgba(255,235,200,0.38)"/>

    <circle cx="860" cy="390" r="52" fill="rgba(255,179,71,0.28)" stroke="rgba(255,201,120,0.55)" stroke-width="3"/>
    <path d="M845 390H875" stroke="white" stroke-width="5" stroke-linecap="round"/>
    <path d="M860 375V405" stroke="white" stroke-width="5" stroke-linecap="round"/>

    <rect x="610" y="470" width="380" height="120" rx="20" fill="rgba(125,211,252,0.12)" stroke="rgba(165,225,255,0.35)"/>
    <rect x="650" y="505" width="140" height="16" rx="8" fill="rgba(210,245,255,0.85)"/>
    <rect x="650" y="535" width="100" height="14" rx="7" fill="rgba(210,245,255,0.5)"/>
    <rect x="780" y="500" width="170" height="60" rx="14" fill="rgba(49,109,168,0.22)" stroke="rgba(152,212,255,0.36)"/>

    <rect x="610" y="620" width="90" height="90" rx="18" fill="rgba(255,255,255,0.1)"/>
    <rect x="720" y="620" width="90" height="90" rx="18" fill="rgba(255,179,71,0.22)" stroke="rgba(255,201,120,0.45)"/>
    <rect x="830" y="620" width="90" height="90" rx="18" fill="rgba(255,255,255,0.1)"/>
    <rect x="940" y="620" width="50" height="90" rx="18" fill="rgba(255,255,255,0.08)"/>
  </g>

  <g opacity="0.75">
    <rect x="180" y="260" width="300" height="56" rx="16" fill="rgba(255,255,255,0.07)" stroke="rgba(255,255,255,0.14)"/>
    <rect x="210" y="280" width="160" height="16" rx="8" fill="rgba(255,235,200,0.7)"/>
    <rect x="180" y="340" width="300" height="56" rx="16" fill="rgba(125,211,252,0.1)" stroke="rgba(165,225,255,0.28)"/>
    <rect x="210" y="360" width="140" height="16" rx="8" fill="rgba(210,245,255,0.75)"/>
    <rect x="180" y="420" width="300" height="56" rx="16" fill="rgba(255,255,255,0.07)" stroke="rgba(255,255,255,0.14)"/>
    <rect x="210" y="440" width="120" height="16" rx="8" fill="rgba(255,255,255,0.45)"/>
  </g>

  <g opacity="0.75">
    <rect x="1120" y="260" width="300" height="56" rx="16" fill="rgba(255,255,255,0.07)" stroke="rgba(255,255,255,0.14)"/>
    <rect x="1150" y="280" width="180" height="16" rx="8" fill="rgba(255,235,200,0.65)"/>
    <rect x="1120" y="340" width="300" height="56" rx="16" fill="rgba(255,255,255,0.07)" stroke="rgba(255,255,255,0.14)"/>
    <rect x="1150" y="360" width="150" height="16" rx="8" fill="rgba(255,255,255,0.42)"/>
    <rect x="1120" y="420" width="300" height="56" rx="16" fill="rgba(125,211,252,0.1)" stroke="rgba(165,225,255,0.28)"/>
    <rect x="1150" y="440" width="130" height="16" rx="8" fill="rgba(210,245,255,0.7)"/>
  </g>

  <rect x="0.5" y="0.5" width="1599" height="899" rx="45.5" stroke="rgba(255,255,255,0.12)"/>
</svg>
