<svg width="1600" height="900" viewBox="0 0 1600 900" fill="none" xmlns="http://www.w3.org/2000/svg">
  <defs>
    <linearGradient id="bg" x1="120" y1="50" x2="1480" y2="850" gradientUnits="userSpaceOnUse">
      <stop stop-color="#1E1B4B"/>
      <stop offset="1" stop-color="#312E81"/>
    </linearGradient>
    <radialGradient id="haloA" cx="0" cy="0" r="1" gradientUnits="userSpaceOnUse" gradientTransform="translate(300 220) rotate(38) scale(450 320)">
      <stop stop-color="#A78BFA" stop-opacity="0.35"/>
      <stop offset="1" stop-color="#A78BFA" stop-opacity="0"/>
    </radialGradient>
    <radialGradient id="haloB" cx="0" cy="0" r="1" gradientUnits="userSpaceOnUse" gradientTransform="translate(1300 650) rotate(-24) scale(520 350)">
      <stop stop-color="#818CF8" stop-opacity="0.28"/>
      <stop offset="1" stop-color="#818CF8" stop-opacity="0"/>
    </radialGradient>
  </defs>

  <rect width="1600" height="900" rx="46" fill="url(#bg)"/>
  <rect width="1600" height="900" rx="46" fill="url(#haloA)"/>
  <rect width="1600" height="900" rx="46" fill="url(#haloB)"/>

  <!-- Main slide canvas -->
  <g>
    <rect x="480" y="140" width="640" height="480" rx="28" fill="rgba(255,255,255,0.1)"/>
    <rect x="480" y="140" width="640" height="480" rx="28" stroke="rgba(255,255,255,0.22)" stroke-width="2"/>
    <rect x="530" y="190" width="280" height="36" rx="10" fill="rgba(196,181,253,0.35)"/>
    <rect x="530" y="260" width="540" height="22" rx="11" fill="rgba(237,233,254,0.85)"/>
    <rect x="530" y="300" width="480" height="18" rx="9" fill="rgba(237,233,254,0.55)"/>
    <rect x="530" y="335" width="420" height="18" rx="9" fill="rgba(237,233,254,0.38)"/>
    <rect x="530" y="400" width="540" height="160" rx="18" fill="rgba(99,102,241,0.2)" stroke="rgba(165,180,252,0.4)"/>
    <rect x="570" y="440" width="180" height="80" rx="12" fill="rgba(167,139,250,0.3)" stroke="rgba(196,181,253,0.45)"/>
    <rect x="780" y="440" width="260" height="16" rx="8" fill="rgba(237,233,254,0.7)"/>
    <rect x="780" y="470" width="200" height="14" rx="7" fill="rgba(237,233,254,0.45)"/>
    <rect x="780" y="500" width="220" height="14" rx="7" fill="rgba(237,233,254,0.3)"/>
  </g>

  <!-- Thumbnail strip -->
  <g>
    <rect x="480" y="660" width="100" height="70" rx="10" fill="rgba(255,255,255,0.12)" stroke="rgba(196,181,253,0.5)" stroke-width="2"/>
    <rect x="600" y="660" width="100" height="70" rx="10" fill="rgba(255,255,255,0.08)" stroke="rgba(255,255,255,0.18)"/>
    <rect x="720" y="660" width="100" height="70" rx="10" fill="rgba(255,255,255,0.08)" stroke="rgba(255,255,255,0.18)"/>
    <rect x="840" y="660" width="100" height="70" rx="10" fill="rgba(255,255,255,0.08)" stroke="rgba(255,255,255,0.18)"/>
    <rect x="960" y="660" width="100" height="70" rx="10" fill="rgba(255,255,255,0.08)" stroke="rgba(255,255,255,0.18)"/>
    <rect x="1080" y="660" width="40" height="70" rx="10" fill="rgba(255,255,255,0.05)" stroke="rgba(255,255,255,0.1)"/>
  </g>

  <!-- Left panel: task list -->
  <g>
    <rect x="130" y="200" width="280" height="400" rx="24" fill="rgba(255,255,255,0.07)"/>
    <rect x="130" y="200" width="280" height="400" rx="24" stroke="rgba(255,255,255,0.16)" stroke-width="2"/>
    <rect x="170" y="250" width="200" height="50" rx="12" fill="rgba(129,140,248,0.22)" stroke="rgba(165,180,252,0.4)"/>
    <rect x="190" y="268" width="120" height="14" rx="7" fill="rgba(237,233,254,0.8)"/>
    <rect x="170" y="320" width="200" height="50" rx="12" fill="rgba(255,255,255,0.06)"/>
    <rect x="190" y="338" width="100" height="14" rx="7" fill="rgba(237,233,254,0.45)"/>
    <rect x="170" y="390" width="200" height="50" rx="12" fill="rgba(255,255,255,0.06)"/>
    <rect x="190" y="408" width="140" height="14" rx="7" fill="rgba(237,233,254,0.45)"/>
    <rect x="170" y="460" width="200" height="50" rx="12" fill="rgba(255,255,255,0.06)"/>
    <rect x="190" y="478" width="90" height="14" rx="7" fill="rgba(237,233,254,0.45)"/>
  </g>

  <!-- Docker container icon -->
  <g>
    <rect x="1190" y="240" width="280" height="200" rx="20" fill="rgba(255,255,255,0.08)" stroke="rgba(255,255,255,0.18)" stroke-width="2"/>
    <rect x="1230" y="290" width="200" height="120" rx="14" fill="rgba(99,102,241,0.25)" stroke="rgba(165,180,252,0.45)"/>
    <rect x="1260" y="320" width="60" height="60" rx="8" fill="rgba(167,139,250,0.35)"/>
    <rect x="1340" y="320" width="60" height="60" rx="8" fill="rgba(167,139,250,0.25)"/>
    <rect x="1260" y="260" width="140" height="20" rx="6" fill="rgba(196,181,253,0.4)"/>
    <circle cx="1400" cy="350" r="18" fill="rgba(129,140,248,0.5)"/>
    <path d="M1392 350L1398 356L1410 344" stroke="white" stroke-width="3.5" stroke-linecap="round" stroke-linejoin="round"/>
  </g>

  <!-- Connection arrows -->
  <g opacity="0.7" stroke="#C4B5FD" stroke-width="2">
    <path d="M410 400H480"/>
    <path d="M1120 380H1190"/>
    <path d="M430 390L480 400L430 410"/>
    <path d="M1140 370L1190 380L1140 390"/>
  </g>

  <rect x="0.5" y="0.5" width="1599" height="899" rx="45.5" stroke="rgba(255,255,255,0.12)"/>
</svg>
