<svg width="1600" height="900" viewBox="0 0 1600 900" fill="none" xmlns="http://www.w3.org/2000/svg">
  <defs>
    <linearGradient id="bg" x1="140" y1="40" x2="1460" y2="860" gradientUnits="userSpaceOnUse">
      <stop stop-color="#111A2E"/>
      <stop offset="1" stop-color="#1D2A45"/>
    </linearGradient>
    <radialGradient id="haloA" cx="0" cy="0" r="1" gradientUnits="userSpaceOnUse" gradientTransform="translate(320 210) rotate(42) scale(470 330)">
      <stop stop-color="#5DB7FF" stop-opacity="0.33"/>
      <stop offset="1" stop-color="#5DB7FF" stop-opacity="0"/>
    </radialGradient>
    <radialGradient id="haloB" cx="0" cy="0" r="1" gradientUnits="userSpaceOnUse" gradientTransform="translate(1280 680) rotate(-28) scale(540 360)">
      <stop stop-color="#73E4C5" stop-opacity="0.24"/>
      <stop offset="1" stop-color="#73E4C5" stop-opacity="0"/>
    </radialGradient>
  </defs>

  <rect width="1600" height="900" rx="46" fill="url(#bg)"/>
  <rect width="1600" height="900" rx="46" fill="url(#haloA)"/>
  <rect width="1600" height="900" rx="46" fill="url(#haloB)"/>

  <g>
    <rect x="130" y="170" width="440" height="560" rx="30" fill="rgba(255,255,255,0.09)"/>
    <rect x="130" y="170" width="440" height="560" rx="30" stroke="rgba(255,255,255,0.2)" stroke-width="2"/>
    <rect x="200" y="255" width="300" height="56" rx="14" fill="rgba(120,196,255,0.2)" stroke="rgba(153,220,255,0.45)"/>
    <rect x="220" y="347" width="260" height="18" rx="9" fill="rgba(194,234,255,0.82)"/>
    <rect x="220" y="382" width="220" height="18" rx="9" fill="rgba(194,234,255,0.5)"/>
    <rect x="220" y="417" width="250" height="18" rx="9" fill="rgba(194,234,255,0.34)"/>
    <rect x="200" y="480" width="300" height="170" rx="16" fill="rgba(49,109,168,0.24)" stroke="rgba(152,212,255,0.36)"/>
  </g>

  <g>
    <rect x="620" y="170" width="840" height="560" rx="30" fill="rgba(255,255,255,0.08)"/>
    <rect x="620" y="170" width="840" height="560" rx="30" stroke="rgba(255,255,255,0.2)" stroke-width="2"/>

    <rect x="690" y="250" width="320" height="70" rx="16" fill="rgba(110,162,255,0.22)" stroke="rgba(173,201,255,0.42)"/>
    <rect x="730" y="274" width="160" height="20" rx="10" fill="rgba(221,231,255,0.9)"/>
    <circle cx="950" cy="285" r="22" fill="rgba(122,204,255,0.55)"/>
    <path d="M940 285L947 292L961 278" stroke="white" stroke-width="4.5" stroke-linecap="round" stroke-linejoin="round"/>

    <rect x="1050" y="250" width="340" height="70" rx="16" fill="rgba(85,204,169,0.2)" stroke="rgba(148,244,215,0.38)"/>
    <rect x="1090" y="274" width="180" height="20" rx="10" fill="rgba(220,255,245,0.9)"/>
    <circle cx="1330" cy="285" r="22" fill="rgba(118,226,196,0.55)"/>

    <rect x="690" y="365" width="700" height="290" rx="20" fill="rgba(34,66,107,0.24)" stroke="rgba(135,191,255,0.35)"/>
    <path d="M760 560L870 480L980 520L1090 440L1200 470L1310 410" stroke="#9ED5FF" stroke-width="8" stroke-linecap="round" stroke-linejoin="round"/>
    <path d="M760 610L870 590L980 600L1090 570L1200 585L1310 560" stroke="#83E7C9" stroke-opacity="0.82" stroke-width="6" stroke-linecap="round"/>
    <circle cx="1090" cy="440" r="12" fill="#9ED5FF"/>
    <circle cx="1310" cy="410" r="12" fill="#9ED5FF"/>
  </g>

  <g opacity="0.78" stroke="#9CCBFF" stroke-width="2">
    <path d="M570 290H620"/>
    <path d="M570 555H620"/>
    <path d="M590 280L620 290L590 300"/>
    <path d="M590 545L620 555L590 565"/>
  </g>

  <rect x="0.5" y="0.5" width="1599" height="899" rx="45.5" stroke="rgba(255,255,255,0.12)"/>
</svg>
